<svg version="1.1" id="Layer_1" xmlns:x="ns_extend;" xmlns:i="ns_ai;" xmlns:graph="ns_graphs;" xmlns="http://www.w3.org/2000/svg" xmlns:xlink="http://www.w3.org/1999/xlink" x="0px" y="0px" viewBox="0 0 49 49" style="enable-background:new 0 0 49 49;" xml:space="preserve">
 <style type="text/css">
  .st0{fill:#FFFFFF;}
 </style>
 <metadata>
  <sfw xmlns="ns_sfw;">
   <slices>
   </slices>
   <sliceSourceBounds bottomLeftOrigin="true" height="49" width="49" x="0" y="0">
   </sliceSourceBounds>
  </sfw>
 </metadata>
 <g>
  <circle class="st0" cx="24.5" cy="24.5" r="23.5">
  </circle>
  <path d="M21.6,11c-0.1-0.2-0.3-0.3-0.5-0.3c-0.1,0-0.2,0-0.4,0.1c-1.3,1-3.1,5.4-4.6,11.1h1.3c2.6,0,5.2,0.1,7.8,0.1
		c-0.7-2.6-1.3-4.9-1.9-6.7C22.5,12.7,21.9,11.6,21.6,11z">
  </path>
  <path d="M24.5,0C11,0,0,11,0,24.5S11,49,24.5,49S49,38,49,24.5S38,0,24.5,0z M42.1,24.9L42.1,24.9C42.1,25,42.1,25,42.1,24.9L42,25
		h-0.1l0,0l0,0c-0.2,0.1-0.4,0.1-0.6,0.1H29.7c0.1,0.4,0.2,0.8,0.3,1.3c0.6,2.7,2.3,10,4.1,10l0,0l0,0l0,0c1.4,0,2.1-2,3.7-6.5l0,0
		c0.3-0.7,0.5-1.5,0.8-2.4l0.1-0.2l0,0c0.1-0.3,0.4-0.4,0.7-0.3c0.2,0.1,0.4,0.3,0.4,0.5c0,0.1,0,0.1,0,0.2l0,0l-0.1,0.2
		c-0.2,0.5-0.3,1.2-0.5,2.1c-0.9,3.9-2.4,9.7-6,9.7l0,0c-2.3,0-3.7-3.8-4.3-5.4c-1.1-3-2-6.2-2.8-9.3H15.5l-2.2,7.1l0,0
		c-0.3,0.5-1,0.7-1.6,0.3c-0.3-0.2-0.5-0.6-0.5-0.9l0,0l0.1-0.8c0.3-1.8,0.7-3.7,1.1-5.6H7.9l0,0c-0.8-0.1-1.4-0.8-1.4-1.7
		c0-0.8,0.6-1.5,1.4-1.7c0.2,0,0.4,0,0.5,0h0.2c1.4,0,3,0,4.6,0.1c2.4-9.6,5.1-14.4,8.1-14.4c3.2,0,5.7,7.4,7.6,14.6l0,0
		c4,0.1,8.2,0.2,12.3,0.5h0.2c0.1,0,0.1,0,0.2,0l0,0l0,0l0,0c0.7,0.1,1.2,0.8,1,1.5C42.5,24.5,42.4,24.8,42.1,24.9z">
  </path>
 </g>
</svg>